<?xml version="1.0" encoding="iso-8859-1"?>
<!-- Generator: Adobe Illustrator 19.0.0, SVG Export Plug-In . SVG Version: 6.00 Build 0)  -->
<svg version="1.1" id="Capa_1" xmlns="http://www.w3.org/2000/svg" xmlns:xlink="http://www.w3.org/1999/xlink" x="0px" y="0px"
	 viewBox="0 0 512 512" style="enable-background:new 0 0 512 512;" xml:space="preserve">
<path style="fill:#FFC843;" d="M148.432,166.341L148.432,166.341c-7.466,0-13.574-6.108-13.574-13.574V42.186
	c0-7.466,6.108-13.574,13.574-13.574l0,0c7.466,0,13.574,6.108,13.574,13.574v110.58
	C162.006,160.233,155.897,166.341,148.432,166.341z"/>
<path style="fill:#FFFFFF;" d="M335.359,139H35.974C20.9,139,8.68,151.22,8.68,166.294s12.22,27.294,27.294,27.294h299.386
	c17.368,0,31.498,14.131,31.498,31.5v101.55c0,15.074,12.22,27.294,27.294,27.294c15.074,0,27.294-12.22,27.294-27.294v-101.55
	C421.446,177.619,382.827,139,335.359,139z"/>
<path style="fill:#D8E0EA;" d="M468.632,321.963v29.812c0,11.491-9.401,20.882-20.882,20.882H335.992
	c-11.481,0-20.882-9.391-20.882-20.882v-29.812c0-11.491,9.401-20.882,20.882-20.882h111.758
	C459.231,301.082,468.632,310.472,468.632,321.963z"/>
<path style="fill:#FFFFFF;" d="M468.632,321.963v18.351H365.565c-11.481,0-20.882-9.401-20.882-20.882v-18.351h103.067
	C459.231,301.082,468.632,310.472,468.632,321.963z"/>
<path style="fill:#5DE0BF;" d="M431.129,467.414c-0.04,8.651-3.01,16.591-7.961,22.892c-6.82,8.651-17.401,14.191-29.282,14.191
	c-20.572,0-37.243-16.671-37.243-37.243c0-7.431,2.18-14.351,5.93-20.161h-0.07l26.622-47.023c1.05-1.85,2.9-2.78,4.76-2.78
	c1.86,0,3.71,0.93,4.76,2.78l6.09,10.761l20.531,36.263h-0.07C428.979,452.943,431.159,459.923,431.129,467.414z"/>
<path style="fill:#76FFD9;" d="M431.129,467.414c-0.04,8.651-3.01,16.591-7.961,22.892c-20.361-0.25-36.783-16.821-36.783-37.243
	c0-7.431,2.18-14.351,5.93-20.161h-0.07l12.491-22.072l20.531,36.263h-0.07C428.979,452.943,431.159,459.923,431.129,467.414z"/>
<path style="fill:#FFA816;" d="M206.753,127.129v78.426c0,8.301-6.79,15.081-15.081,15.081h-86.476
	c-8.291,0-15.081-6.78-15.081-15.081v-78.426c0-8.301,6.79-15.081,15.081-15.081h86.476
	C199.963,112.048,206.753,118.829,206.753,127.129z"/>
<path style="fill:#FFC843;" d="M206.753,127.129v66.015h-75.055c-8.291,0-15.081-6.79-15.081-15.091v-66.005h75.055
	C199.963,112.048,206.753,118.829,206.753,127.129z"/>
<path style="fill:#FFA816;" d="M206.243,22.582v9.051c0,8.291-6.781,15.081-15.081,15.081h-85.466
	c-8.291,0-15.081-6.79-15.081-15.081v-9.051c0-8.301,6.79-15.081,15.081-15.081h85.466C199.463,7.501,206.243,14.281,206.243,22.582
	z"/>
<path style="fill:#FFC843;" d="M206.243,22.582v1.13h-81.546c-8.291,0-15.081-6.79-15.081-15.081v-1.13h81.546
	C199.463,7.501,206.243,14.281,206.243,22.582z"/>
<g>
	<path style="fill:#434C54;" d="M447.751,293.581h-18.801v-68.495c0-51.604-41.983-93.587-93.587-93.587H214.254v-4.37
		c0-12.451-10.131-22.582-22.582-22.582H169.51V54.214h21.652c12.451,0,22.582-10.131,22.582-22.582v-9.051
		C213.744,10.131,203.613,0,191.162,0h-7.341c-4.14,0-7.501,3.35-7.501,7.501c0,4.14,3.36,7.501,7.501,7.501h7.341
		c4.18,0,7.581,3.4,7.581,7.581v9.051c0,4.18-3.4,7.581-7.581,7.581c-49.496,0-36.798,0-85.466,0c-4.18,0-7.581-3.4-7.581-7.581
		v-9.051c0-4.18,3.4-7.581,7.581-7.581h48.123c4.15,0,7.501-3.36,7.501-7.501c0-4.15-3.35-7.501-7.501-7.501h-48.123
		C93.245,0,83.114,10.131,83.114,22.582v9.051c0,12.451,10.131,22.582,22.582,22.582h21.662v50.334h-22.162
		c-12.451,0-22.582,10.131-22.582,22.582v4.37H35.971c-19.181,0-34.793,15.611-34.793,34.792c0,19.191,15.611,34.793,34.793,34.793
		h46.643v4.47c0,12.451,10.131,22.582,22.582,22.582h86.476c12.451,0,22.582-10.131,22.582-22.582v-4.47h74.595
		c4.15,0,7.501-3.35,7.501-7.501c0-4.14-3.35-7.501-7.501-7.501h-74.595v-39.583h121.109c43.333,0,78.586,35.253,78.586,78.586
		v68.495h-39.593v-68.495c0-21.502-17.491-39.003-38.993-39.003h-16.511c-4.14,0-7.501,3.36-7.501,7.501
		c0,4.15,3.36,7.501,7.501,7.501h16.511c13.231,0,23.992,10.771,23.992,24.002v68.495h-23.362
		c-15.651,0-28.382,12.731-28.382,28.382v29.812c0,15.651,12.731,28.382,28.382,28.382h111.758
		c15.651,0,28.382-12.731,28.382-28.382v-29.812C476.133,306.312,463.402,293.581,447.751,293.581z M82.614,186.083H35.971
		c-10.911,0-19.791-8.871-19.791-19.791c0-10.911,8.881-19.791,19.791-19.791h46.643V186.083z M142.358,54.214h12.151v50.334
		h-12.151V54.214z M199.253,146.501c0,6.314,0,51.531,0,59.054c0,4.18-3.4,7.581-7.581,7.581h-86.476c-4.18,0-7.581-3.4-7.581-7.581
		c0-7.167,0-14.985,0-19.471c0-6.439,0-51.708,0-58.954c0-4.18,3.4-7.581,7.581-7.581c10.178,0,75.182,0,86.476,0
		c4.18,0,7.581,3.4,7.581,7.581C199.253,130.972,199.253,141.521,199.253,146.501z M461.132,351.775c0,7.381-6,13.381-13.381,13.381
		H335.992c-7.371,0-13.381-6-13.381-13.381v-29.812c0-7.381,6.01-13.381,13.381-13.381c32.528,0,74.13,0,111.758,0
		c7.381,0,13.381,6,13.381,13.381V351.775z"/>
	<path style="fill:#434C54;" d="M405.176,396.378c-2.298-4.061-6.624-6.583-11.291-6.583c-4.664,0-8.991,2.521-11.291,6.583
		l-11.32,19.995c-2.041,3.605-0.773,8.183,2.832,10.223c3.604,2.043,8.182,0.772,10.222-2.831l9.557-16.881
		c24.678,45.328,29.743,48.11,29.743,60.502c-0.07,16.329-13.413,29.613-29.743,29.613c-16.399,0-29.742-13.343-29.742-29.743
		c0-9.906,4.652-15.592,5.352-17.287l0.056-0.1c4.939-8.734-8.697-16.883-13.826-5.981c-4.31,7.024-6.582,15.082-6.582,23.369
		c0,24.672,20.071,44.744,44.743,44.744c24.567,0,44.639-19.984,44.744-44.597c0-8.621-2.34-16.603-6.58-23.515
		C431.969,443.72,433.31,446.087,405.176,396.378z"/>
</g>
<g>
	<path style="fill:#00C395;" d="M406.452,74.632c-4.418,0-8.001,3.582-8.001,8.001c0,4.418,3.582,8.001,8.001,8.001
		c33.792,0,61.284,27.492,61.284,61.285c0,4.418,3.582,8.001,8.001,8.001c4.418,0,8.001-3.582,8.001-8.001
		C483.737,109.303,449.067,74.632,406.452,74.632z"/>
	<path style="fill:#00C395;" d="M402.878,121.995c18.471,0,33.497,15.026,33.497,33.496c0,4.418,3.582,8.001,8.001,8.001
		c4.418,0,8.001-3.582,8.001-8.001c0-27.293-22.205-49.498-49.499-49.498c-4.418,0-8.001,3.582-8.001,8.001
		C394.878,118.413,398.46,121.995,402.878,121.995z"/>
	<path style="fill:#00C395;" d="M484.039,75.937c-19.022-20.239-45.416-31.386-74.317-31.386c-4.418,0-8.001,3.582-8.001,8.001
		s3.582,8.001,8.001,8.001c24.439,0,46.691,9.355,62.658,26.344c15.88,16.895,23.783,39.786,22.254,64.458
		c-0.273,4.41,3.079,8.207,7.49,8.48c0.169,0.011,0.336,0.016,0.503,0.016c4.191,0,7.715-3.264,7.978-7.506
		C512.409,123.219,502.975,96.083,484.039,75.937z"/>
</g>
<g>
</g>
<g>
</g>
<g>
</g>
<g>
</g>
<g>
</g>
<g>
</g>
<g>
</g>
<g>
</g>
<g>
</g>
<g>
</g>
<g>
</g>
<g>
</g>
<g>
</g>
<g>
</g>
<g>
</g>
</svg>
